# xmcd
#
# Track frame offsets:
#	150
#	28887
#	47115
#	71392
#	91918
#	109011
#	147013
#	169764
#
# Disc length: 2605 seconds
#
# Revision: 0
# Processed by: cddbd v1.5.2PL0 Copyright (c) Steve Scherf et al.
# Submitted via: audiograbber 1.83.01
#
DISCID=650a2b08
DTITLE=Wheatbread Johnson - Jesus loves a survivor
DYEAR=2004
DGENRE=Bluesrock
TTITLE0=Think about it
TTITLE1=The bottom line
TTITLE2=The change
TTITLE3=Touch somebody
TTITLE4=Been free before
TTITLE5=It's not your fault
TTITLE6=Turnaround
TTITLE7=Jesus loves a survivor
EXTD=
EXTT0=
EXTT1=
EXTT2=
EXTT3=
EXTT4=
EXTT5=
EXTT6=
EXTT7=
PLAYORDER=
